<?xml version="1.0" encoding="UTF-8"?>
<!--Generator: Apple Native CoreSVG 341-->
<!DOCTYPE svg
PUBLIC "-//W3C//DTD SVG 1.1//EN"
       "http://www.w3.org/Graphics/SVG/1.1/DTD/svg11.dtd">
<svg version="1.1" xmlns="http://www.w3.org/2000/svg" xmlns:xlink="http://www.w3.org/1999/xlink" viewBox="0 0 729.492 730.371">
 <g>
  <path d="M0 209.18C0 223.242 11.7188 234.961 26.0742 234.961C40.1367 234.961 51.8555 223.242 51.8555 209.18L51.8555 136.523C51.8555 84.082 82.9102 52.7344 135.645 52.7344L209.473 52.7344C223.535 52.7344 235.254 41.0156 235.254 26.9531C235.254 12.5977 223.535 0.878906 209.473 0.878906L135.645 0.878906C50.6836 0.878906 0 52.1484 0 136.523ZM729.492 209.18L729.492 136.523C729.492 52.1484 678.809 0.878906 593.848 0.878906L520.02 0.878906C505.957 0.878906 494.238 12.5977 494.238 26.9531C494.238 41.0156 505.957 52.7344 520.02 52.7344L593.848 52.7344C646.582 52.7344 677.637 84.082 677.637 136.523L677.637 209.18C677.637 223.242 689.355 234.961 703.418 234.961C717.773 234.961 729.492 223.242 729.492 209.18ZM0 522.07L0 594.727C0 679.102 50.6836 730.371 135.645 730.371L209.473 730.371C223.535 730.371 235.254 718.652 235.254 704.297C235.254 690.234 223.535 678.516 209.473 678.516L135.645 678.516C82.9102 678.516 51.8555 647.168 51.8555 594.727L51.8555 522.07C51.8555 508.008 40.1367 496.289 26.0742 496.289C11.7188 496.289 0 508.008 0 522.07ZM729.492 522.07C729.492 508.008 717.773 496.289 703.418 496.289C689.355 496.289 677.637 508.008 677.637 522.07L677.637 594.727C677.637 647.168 646.582 678.516 593.848 678.516L520.02 678.516C505.957 678.516 494.238 690.234 494.238 704.297C494.238 718.652 505.957 730.371 520.02 730.371L593.848 730.371C678.809 730.371 729.492 679.102 729.492 594.727Z" fill="black" fill-opacity="0.85"/>
  <path d="M197.168 548.73L330.762 548.73C340.43 548.73 347.461 541.699 347.461 532.324L347.461 398.73C347.461 389.355 340.43 382.031 330.762 382.031L197.168 382.031C187.793 382.031 180.469 389.355 180.469 398.73L180.469 532.324C180.469 541.699 187.793 548.73 197.168 548.73ZM213.574 515.625L213.574 415.137L314.062 415.137L314.062 515.625ZM243.164 486.328L284.766 486.328L284.766 444.434L243.164 444.434ZM197.168 348.633L330.762 348.633C340.43 348.633 347.461 341.602 347.461 331.934L347.461 198.34C347.461 188.965 340.43 181.641 330.762 181.641L197.168 181.641C187.793 181.641 180.469 188.965 180.469 198.34L180.469 331.934C180.469 341.602 187.793 348.633 197.168 348.633ZM213.574 315.234L213.574 214.746L314.062 214.746L314.062 315.234ZM243.164 285.938L284.766 285.938L284.766 244.043L243.164 244.043ZM397.266 348.633L530.859 348.633C540.527 348.633 547.559 341.602 547.559 331.934L547.559 198.34C547.559 188.965 540.527 181.641 530.859 181.641L397.266 181.641C387.891 181.641 380.566 188.965 380.566 198.34L380.566 331.934C380.566 341.602 387.891 348.633 397.266 348.633ZM413.672 315.234L413.672 214.746L514.16 214.746L514.16 315.234ZM443.262 285.938L484.863 285.938L484.863 244.043L443.262 244.043ZM385.254 543.75L427.148 543.75L427.148 502.148L385.254 502.148ZM500.684 543.75L542.578 543.75L542.578 502.148L500.684 502.148ZM442.969 486.328L484.863 486.328L484.863 444.434L442.969 444.434ZM385.254 428.32L427.148 428.32L427.148 386.426L385.254 386.426ZM500.684 428.32L542.578 428.32L542.578 386.426L500.684 386.426Z" fill="black" fill-opacity="0.85"/>
 </g>
</svg>
